#!OML:ASF H:\ColoradoDance\Project 1\Capture day 1\Session 8\male.ASF
:FULLY-SPECIFIED
:DEGREES
174
upperback -3.209780 5.827020 0.565252
rfoot -34.068298 -23.933701
lradius 28.316299
lthumb 15.445500 415.341003
rradius 48.139400
lwrist -12.405400
rhand -20.758600 2.834590
rhumerus -26.072001 14.715300 -85.288101
lowerneck -1.428140 2.174210 6.349310
lhand -10.558700 -334.062012
ltibia 58.468201
head 2.543510 1.485380 -2.479500
rwrist 7.603460
lfingers 7.125020
rtoes -18.671499
lowerback 2.824720 4.049150 8.217700
rfingers 7.125020
lclavicle -0.000000 -0.000000
upperneck 6.574290 2.926300 -4.427380
rfemur 13.969600 -5.711380 24.931700
thorax -4.180220 2.628670 -4.324000
rclavicle -0.000000 -0.000000
rtibia 23.451300
lfoot -4.184300 18.382700
lhumerus -54.410198 8.560110 60.852402
rthumb 5.607420 -27.071199
root 29.463200 17.326099 -43.115799 1279.140015 -121.236000 -1276.300049
ltoes 10.273100
lfemur -57.171299 21.724199 -18.429100
175
upperback -2.405500 4.305000 0.837674
rfoot -35.640400 -23.299900
lradius 34.398201
lthumb 9.859130 414.605011
rradius 35.188900
lwrist -7.904520
rhand -18.389200 1.800490
rhumerus -42.595798 5.619540 -88.095901
lowerneck -0.860664 3.033660 7.060100
lhand -16.353500 -335.144012
ltibia 53.469700
head 3.162740 2.087520 -1.958330
rwrist 16.197100
lfingers 7.125020
rtoes -19.978001
lowerback 0.688844 3.145600 4.913250
rfingers 7.125020
lclavicle 0.000000 0.000000
upperneck 8.625350 3.955360 -2.564830
rfemur 16.498501 -4.776880 22.221399
thorax -2.568330 2.044030 -1.994320
rclavicle 0.000000 0.000000
rtibia 26.895500
lfoot 10.072300 4.151220
lhumerus -49.347698 6.648280 57.880299
rthumb 7.894690 -28.032101
root 29.614901 17.189699 -43.231098 1272.609985 -119.367996 -1273.540039
ltoes 1.304580
lfemur -54.407299 12.176400 -6.353360
176
upperback -2.712140 4.960000 0.307302
rfoot -29.265499 -18.112000
lradius 37.066700
lthumb -7.056660 386.191010
rradius 24.517200
lwrist -7.139270
rhand -24.906099 -0.805207
rhumerus -50.663101 -5.389150 -74.235001
lowerneck -3.105010 5.021630 8.620020
lhand -33.872700 -363.670990
ltibia 35.222301
head 2.417090 3.254390 -1.504920
rwrist 18.275299
lfingers 7.125020
rtoes -26.546900
lowerback 0.948078 3.630080 4.763250
rfingers 7.125020
lclavicle 0.000000 0.000000
upperneck 4.862550 6.266710 -0.693599
rfemur 17.737600 5.429450 14.048200
thorax -2.952300 2.352720 -2.496660
rclavicle 0.000000 0.000000
rtibia 19.345501
lfoot 1.917010 -12.854500
lhumerus -42.755100 0.508180 60.869202
rthumb 1.602240 -30.778900
root 28.973000 16.926701 -41.204700 1287.160034 -106.655998 -1284.010010
ltoes -13.961400
lfemur -41.756401 -9.473970 18.199800
177
upperback -2.961300 2.489110 2.867750
rfoot -10.330900 -22.197599
lradius 36.066502
lthumb 16.884100 419.473999
rradius 36.510399
lwrist -5.366360
rhand -28.144600 -10.121600
rhumerus -43.489498 -8.486120 -62.996201
lowerneck -4.991330 -4.785440 -0.076891
lhand -9.064770 -329.812012
ltibia 54.574699
head 2.207920 -3.297200 2.610160
rwrist 3.599880
lfingers 7.125020
rtoes -11.440100
lowerback 3.199350 1.718250 2.485840
rfingers 7.125020
lclavicle -0.000000 0.000000
upperneck 3.078640 -6.930760 8.812390
rfemur -1.866130 9.544220 -1.219070
thorax -4.881200 1.172530 1.395360
rclavicle -0.000000 0.000000
rtibia 15.214400
lfoot -16.348600 -7.500270
lhumerus -38.562801 -2.155940 69.992798
rthumb -1.525580 -40.095901
root 28.326200 17.215500 -37.838799 1420.579956 -107.095001 -1408.180054
ltoes -19.158300
lfemur -42.320099 14.417200 7.362180
178
upperback -2.214480 -1.274100 2.670190
rfoot -1.331290 -15.587400
lradius 34.603500
lthumb 7.070330 413.358002
rradius 51.068600
lwrist -9.499170
rhand -21.956100 -31.776800
rhumerus -46.990700 -0.632457 -74.771896
lowerneck -0.964042 -12.532600 -4.635710
lhand -19.243299 -336.503998
ltibia 50.990200
head 2.392420 -8.492250 2.755330
rwrist 8.144810
lfingers 7.125020
rtoes -14.410400
lowerback 3.048330 -0.930062 -1.620110
rfingers 7.125020
lclavicle 0.000000 0.000000
upperneck 3.246840 -17.077700 7.828420
rfemur -33.049599 -13.730000 6.490790
thorax -3.900180 -0.572700 3.754390
rclavicle 0.000000 0.000000
rtibia 55.957298
lfoot -19.516600 10.967200
lhumerus -39.971199 2.560480 63.219299
rthumb 4.451170 -61.710098
root 28.389400 17.925600 -36.236198 1446.300049 -142.417999 -1431.219971
ltoes -12.701400
lfemur -29.250900 26.275700 0.698602
